<svg xmlns="http://www.w3.org/2000/svg" width="420" height="200" viewBox="0 0 420 200" role="img" aria-label="Contribution activity: 237 contributions in the last twelve months">
  <rect x="0.5" y="0.5" width="419" height="199" rx="14" fill="#f6f7fb" stroke="rgba(5,6,10,0.12)"/>
  <path d="M14 1 H1 V14" fill="none" stroke="#0e7490" stroke-width="1.5" opacity="0.9"/>
  <path d="M406 199 H419 V186" fill="none" stroke="#6d28d9" stroke-width="1.5" opacity="0.9"/>
  <circle cx="28" cy="34" r="3.5" fill="#0e7490"/>
  <text x="40" y="38" font-family="ui-monospace,SFMono-Regular,'JetBrains Mono',Menlo,Consolas,'Liberation Mono',monospace" font-size="11" letter-spacing="1.6" fill="#5a6377">ACTIVITY / LAST 12 MONTHS</text>
  <text x="24" y="76" font-family="ui-monospace,SFMono-Regular,'JetBrains Mono',Menlo,Consolas,'Liberation Mono',monospace" font-size="34" font-weight="700" fill="#6d28d9">237</text>
  <text x="97.5" y="76" font-family="ui-monospace,SFMono-Regular,'JetBrains Mono',Menlo,Consolas,'Liberation Mono',monospace" font-size="12.5" fill="#4b5468">contributions</text>
  <text x="24" y="100" font-family="ui-monospace,SFMono-Regular,'JetBrains Mono',Menlo,Consolas,'Liberation Mono',monospace" font-size="21" font-weight="700" fill="#0a0d16">32</text>
  <text x="24" y="118" font-family="ui-monospace,SFMono-Regular,'JetBrains Mono',Menlo,Consolas,'Liberation Mono',monospace" font-size="10.5" letter-spacing="0.8" fill="#5a6377">active days</text>
  <text x="148" y="100" font-family="ui-monospace,SFMono-Regular,'JetBrains Mono',Menlo,Consolas,'Liberation Mono',monospace" font-size="21" font-weight="700" fill="#0a0d16">47</text>
  <text x="148" y="118" font-family="ui-monospace,SFMono-Regular,'JetBrains Mono',Menlo,Consolas,'Liberation Mono',monospace" font-size="10.5" letter-spacing="0.8" fill="#5a6377">busiest day</text>
  <text x="272" y="100" font-family="ui-monospace,SFMono-Regular,'JetBrains Mono',Menlo,Consolas,'Liberation Mono',monospace" font-size="21" font-weight="700" fill="#0a0d16">22</text>
  <text x="272" y="118" font-family="ui-monospace,SFMono-Regular,'JetBrains Mono',Menlo,Consolas,'Liberation Mono',monospace" font-size="10.5" letter-spacing="0.8" fill="#5a6377">public repos</text>
  <g><rect x="24.00" y="137.00" width="5.3" height="5.3" rx="1.2" fill="#e6e9f2"/><rect x="24.00" y="143.90" width="5.3" height="5.3" rx="1.2" fill="#e6e9f2"/><rect x="24.00" y="150.80" width="5.3" height="5.3" rx="1.2" fill="#e6e9f2"/><rect x="24.00" y="157.70" width="5.3" height="5.3" rx="1.2" fill="#e6e9f2"/><rect x="24.00" y="164.60" width="5.3" height="5.3" rx="1.2" fill="#e6e9f2"/><rect x="24.00" y="171.50" width="5.3" height="5.3" rx="1.2" fill="#e6e9f2"/><rect x="24.00" y="178.40" width="5.3" height="5.3" rx="1.2" fill="#e6e9f2"/><rect x="30.90" y="137.00" width="5.3" height="5.3" rx="1.2" fill="#e6e9f2"/><rect x="30.90" y="143.90" width="5.3" height="5.3" rx="1.2" fill="#e6e9f2"/><rect x="30.90" y="150.80" width="5.3" height="5.3" rx="1.2" fill="#e6e9f2"/><rect x="30.90" y="157.70" width="5.3" height="5.3" rx="1.2" fill="#e6e9f2"/><rect x="30.90" y="164.60" width="5.3" height="5.3" rx="1.2" fill="#e6e9f2"/><rect x="30.90" y="171.50" width="5.3" height="5.3" rx="1.2" fill="#e6e9f2"/><rect x="30.90" y="178.40" width="5.3" height="5.3" rx="1.2" fill="#e6e9f2"/><rect x="37.80" y="137.00" width="5.3" height="5.3" rx="1.2" fill="#e6e9f2"/><rect x="37.80" y="143.90" width="5.3" height="5.3" rx="1.2" fill="#e6e9f2"/><rect x="37.80" y="150.80" width="5.3" height="5.3" rx="1.2" fill="#e6e9f2"/><rect x="37.80" y="157.70" width="5.3" height="5.3" rx="1.2" fill="#e6e9f2"/><rect x="37.80" y="164.60" width="5.3" height="5.3" rx="1.2" fill="#e6e9f2"/><rect x="37.80" y="171.50" width="5.3" height="5.3" rx="1.2" fill="#e6e9f2"/><rect x="37.80" y="178.40" width="5.3" height="5.3" rx="1.2" fill="#e6e9f2"/><rect x="44.70" y="137.00" width="5.3" height="5.3" rx="1.2" fill="#e6e9f2"/><rect x="44.70" y="143.90" width="5.3" height="5.3" rx="1.2" fill="#e6e9f2"/><rect x="44.70" y="150.80" width="5.3" height="5.3" rx="1.2" fill="#e6e9f2"/><rect x="44.70" y="157.70" width="5.3" height="5.3" rx="1.2" fill="#e6e9f2"/><rect x="44.70" y="164.60" width="5.3" height="5.3" rx="1.2" fill="#e6e9f2"/><rect x="44.70" y="171.50" width="5.3" height="5.3" rx="1.2" fill="#e6e9f2"/><rect x="44.70" y="178.40" width="5.3" height="5.3" rx="1.2" fill="#e6e9f2"/><rect x="51.60" y="137.00" width="5.3" height="5.3" rx="1.2" fill="#e6e9f2"/><rect x="51.60" y="143.90" width="5.3" height="5.3" rx="1.2" fill="#e6e9f2"/><rect x="51.60" y="150.80" width="5.3" height="5.3" rx="1.2" fill="#e6e9f2"/><rect x="51.60" y="157.70" width="5.3" height="5.3" rx="1.2" fill="#e6e9f2"/><rect x="51.60" y="164.60" width="5.3" height="5.3" rx="1.2" fill="#e6e9f2"/><rect x="51.60" y="171.50" width="5.3" height="5.3" rx="1.2" fill="#e6e9f2"/><rect x="51.60" y="178.40" width="5.3" height="5.3" rx="1.2" fill="#e6e9f2"/><rect x="58.50" y="137.00" width="5.3" height="5.3" rx="1.2" fill="#e6e9f2"/><rect x="58.50" y="143.90" width="5.3" height="5.3" rx="1.2" fill="#e6e9f2"/><rect x="58.50" y="150.80" width="5.3" height="5.3" rx="1.2" fill="#e6e9f2"/><rect x="58.50" y="157.70" width="5.3" height="5.3" rx="1.2" fill="#e6e9f2"/><rect x="58.50" y="164.60" width="5.3" height="5.3" rx="1.2" fill="#e6e9f2"/><rect x="58.50" y="171.50" width="5.3" height="5.3" rx="1.2" fill="#e6e9f2"/><rect x="58.50" y="178.40" width="5.3" height="5.3" rx="1.2" fill="#e6e9f2"/><rect x="65.40" y="137.00" width="5.3" height="5.3" rx="1.2" fill="#e6e9f2"/><rect x="65.40" y="143.90" width="5.3" height="5.3" rx="1.2" fill="#e6e9f2"/><rect x="65.40" y="150.80" width="5.3" height="5.3" rx="1.2" fill="#e6e9f2"/><rect x="65.40" y="157.70" width="5.3" height="5.3" rx="1.2" fill="#e6e9f2"/><rect x="65.40" y="164.60" width="5.3" height="5.3" rx="1.2" fill="#e6e9f2"/><rect x="65.40" y="171.50" width="5.3" height="5.3" rx="1.2" fill="#e6e9f2"/><rect x="65.40" y="178.40" width="5.3" height="5.3" rx="1.2" fill="#e6e9f2"/><rect x="72.30" y="137.00" width="5.3" height="5.3" rx="1.2" fill="#e6e9f2"/><rect x="72.30" y="143.90" width="5.3" height="5.3" rx="1.2" fill="#e6e9f2"/><rect x="72.30" y="150.80" width="5.3" height="5.3" rx="1.2" fill="#bce7f0"/><rect x="72.30" y="157.70" width="5.3" height="5.3" rx="1.2" fill="#e6e9f2"/><rect x="72.30" y="164.60" width="5.3" height="5.3" rx="1.2" fill="#e6e9f2"/><rect x="72.30" y="171.50" width="5.3" height="5.3" rx="1.2" fill="#e6e9f2"/><rect x="72.30" y="178.40" width="5.3" height="5.3" rx="1.2" fill="#e6e9f2"/><rect x="79.20" y="137.00" width="5.3" height="5.3" rx="1.2" fill="#e6e9f2"/><rect x="79.20" y="143.90" width="5.3" height="5.3" rx="1.2" fill="#e6e9f2"/><rect x="79.20" y="150.80" width="5.3" height="5.3" rx="1.2" fill="#e6e9f2"/><rect x="79.20" y="157.70" width="5.3" height="5.3" rx="1.2" fill="#e6e9f2"/><rect x="79.20" y="164.60" width="5.3" height="5.3" rx="1.2" fill="#e6e9f2"/><rect x="79.20" y="171.50" width="5.3" height="5.3" rx="1.2" fill="#e6e9f2"/><rect x="79.20" y="178.40" width="5.3" height="5.3" rx="1.2" fill="#e6e9f2"/><rect x="86.10" y="137.00" width="5.3" height="5.3" rx="1.2" fill="#e6e9f2"/><rect x="86.10" y="143.90" width="5.3" height="5.3" rx="1.2" fill="#e6e9f2"/><rect x="86.10" y="150.80" width="5.3" height="5.3" rx="1.2" fill="#e6e9f2"/><rect x="86.10" y="157.70" width="5.3" height="5.3" rx="1.2" fill="#e6e9f2"/><rect x="86.10" y="164.60" width="5.3" height="5.3" rx="1.2" fill="#e6e9f2"/><rect x="86.10" y="171.50" width="5.3" height="5.3" rx="1.2" fill="#e6e9f2"/><rect x="86.10" y="178.40" width="5.3" height="5.3" rx="1.2" fill="#e6e9f2"/><rect x="93.00" y="137.00" width="5.3" height="5.3" rx="1.2" fill="#e6e9f2"/><rect x="93.00" y="143.90" width="5.3" height="5.3" rx="1.2" fill="#e6e9f2"/><rect x="93.00" y="150.80" width="5.3" height="5.3" rx="1.2" fill="#e6e9f2"/><rect x="93.00" y="157.70" width="5.3" height="5.3" rx="1.2" fill="#e6e9f2"/><rect x="93.00" y="164.60" width="5.3" height="5.3" rx="1.2" fill="#e6e9f2"/><rect x="93.00" y="171.50" width="5.3" height="5.3" rx="1.2" fill="#bce7f0"/><rect x="93.00" y="178.40" width="5.3" height="5.3" rx="1.2" fill="#e6e9f2"/><rect x="99.90" y="137.00" width="5.3" height="5.3" rx="1.2" fill="#e6e9f2"/><rect x="99.90" y="143.90" width="5.3" height="5.3" rx="1.2" fill="#bce7f0"/><rect x="99.90" y="150.80" width="5.3" height="5.3" rx="1.2" fill="#e6e9f2"/><rect x="99.90" y="157.70" width="5.3" height="5.3" rx="1.2" fill="#e6e9f2"/><rect x="99.90" y="164.60" width="5.3" height="5.3" rx="1.2" fill="#e6e9f2"/><rect x="99.90" y="171.50" width="5.3" height="5.3" rx="1.2" fill="#e6e9f2"/><rect x="99.90" y="178.40" width="5.3" height="5.3" rx="1.2" fill="#e6e9f2"/><rect x="106.80" y="137.00" width="5.3" height="5.3" rx="1.2" fill="#e6e9f2"/><rect x="106.80" y="143.90" width="5.3" height="5.3" rx="1.2" fill="#e6e9f2"/><rect x="106.80" y="150.80" width="5.3" height="5.3" rx="1.2" fill="#e6e9f2"/><rect x="106.80" y="157.70" width="5.3" height="5.3" rx="1.2" fill="#e6e9f2"/><rect x="106.80" y="164.60" width="5.3" height="5.3" rx="1.2" fill="#e6e9f2"/><rect x="106.80" y="171.50" width="5.3" height="5.3" rx="1.2" fill="#e6e9f2"/><rect x="106.80" y="178.40" width="5.3" height="5.3" rx="1.2" fill="#e6e9f2"/><rect x="113.70" y="137.00" width="5.3" height="5.3" rx="1.2" fill="#e6e9f2"/><rect x="113.70" y="143.90" width="5.3" height="5.3" rx="1.2" fill="#e6e9f2"/><rect x="113.70" y="150.80" width="5.3" height="5.3" rx="1.2" fill="#e6e9f2"/><rect x="113.70" y="157.70" width="5.3" height="5.3" rx="1.2" fill="#e6e9f2"/><rect x="113.70" y="164.60" width="5.3" height="5.3" rx="1.2" fill="#bce7f0"/><rect x="113.70" y="171.50" width="5.3" height="5.3" rx="1.2" fill="#e6e9f2"/><rect x="113.70" y="178.40" width="5.3" height="5.3" rx="1.2" fill="#e6e9f2"/><rect x="120.60" y="137.00" width="5.3" height="5.3" rx="1.2" fill="#e6e9f2"/><rect x="120.60" y="143.90" width="5.3" height="5.3" rx="1.2" fill="#e6e9f2"/><rect x="120.60" y="150.80" width="5.3" height="5.3" rx="1.2" fill="#e6e9f2"/><rect x="120.60" y="157.70" width="5.3" height="5.3" rx="1.2" fill="#e6e9f2"/><rect x="120.60" y="164.60" width="5.3" height="5.3" rx="1.2" fill="#e6e9f2"/><rect x="120.60" y="171.50" width="5.3" height="5.3" rx="1.2" fill="#e6e9f2"/><rect x="120.60" y="178.40" width="5.3" height="5.3" rx="1.2" fill="#e6e9f2"/><rect x="127.50" y="137.00" width="5.3" height="5.3" rx="1.2" fill="#e6e9f2"/><rect x="127.50" y="143.90" width="5.3" height="5.3" rx="1.2" fill="#e6e9f2"/><rect x="127.50" y="150.80" width="5.3" height="5.3" rx="1.2" fill="#e6e9f2"/><rect x="127.50" y="157.70" width="5.3" height="5.3" rx="1.2" fill="#e6e9f2"/><rect x="127.50" y="164.60" width="5.3" height="5.3" rx="1.2" fill="#e6e9f2"/><rect x="127.50" y="171.50" width="5.3" height="5.3" rx="1.2" fill="#e6e9f2"/><rect x="127.50" y="178.40" width="5.3" height="5.3" rx="1.2" fill="#e6e9f2"/><rect x="134.40" y="137.00" width="5.3" height="5.3" rx="1.2" fill="#e6e9f2"/><rect x="134.40" y="143.90" width="5.3" height="5.3" rx="1.2" fill="#e6e9f2"/><rect x="134.40" y="150.80" width="5.3" height="5.3" rx="1.2" fill="#e6e9f2"/><rect x="134.40" y="157.70" width="5.3" height="5.3" rx="1.2" fill="#e6e9f2"/><rect x="134.40" y="164.60" width="5.3" height="5.3" rx="1.2" fill="#e6e9f2"/><rect x="134.40" y="171.50" width="5.3" height="5.3" rx="1.2" fill="#e6e9f2"/><rect x="134.40" y="178.40" width="5.3" height="5.3" rx="1.2" fill="#e6e9f2"/><rect x="141.30" y="137.00" width="5.3" height="5.3" rx="1.2" fill="#e6e9f2"/><rect x="141.30" y="143.90" width="5.3" height="5.3" rx="1.2" fill="#e6e9f2"/><rect x="141.30" y="150.80" width="5.3" height="5.3" rx="1.2" fill="#e6e9f2"/><rect x="141.30" y="157.70" width="5.3" height="5.3" rx="1.2" fill="#e6e9f2"/><rect x="141.30" y="164.60" width="5.3" height="5.3" rx="1.2" fill="#e6e9f2"/><rect x="141.30" y="171.50" width="5.3" height="5.3" rx="1.2" fill="#e6e9f2"/><rect x="141.30" y="178.40" width="5.3" height="5.3" rx="1.2" fill="#e6e9f2"/><rect x="148.20" y="137.00" width="5.3" height="5.3" rx="1.2" fill="#e6e9f2"/><rect x="148.20" y="143.90" width="5.3" height="5.3" rx="1.2" fill="#e6e9f2"/><rect x="148.20" y="150.80" width="5.3" height="5.3" rx="1.2" fill="#e6e9f2"/><rect x="148.20" y="157.70" width="5.3" height="5.3" rx="1.2" fill="#e6e9f2"/><rect x="148.20" y="164.60" width="5.3" height="5.3" rx="1.2" fill="#e6e9f2"/><rect x="148.20" y="171.50" width="5.3" height="5.3" rx="1.2" fill="#e6e9f2"/><rect x="148.20" y="178.40" width="5.3" height="5.3" rx="1.2" fill="#e6e9f2"/><rect x="155.10" y="137.00" width="5.3" height="5.3" rx="1.2" fill="#e6e9f2"/><rect x="155.10" y="143.90" width="5.3" height="5.3" rx="1.2" fill="#e6e9f2"/><rect x="155.10" y="150.80" width="5.3" height="5.3" rx="1.2" fill="#e6e9f2"/><rect x="155.10" y="157.70" width="5.3" height="5.3" rx="1.2" fill="#e6e9f2"/><rect x="155.10" y="164.60" width="5.3" height="5.3" rx="1.2" fill="#e6e9f2"/><rect x="155.10" y="171.50" width="5.3" height="5.3" rx="1.2" fill="#e6e9f2"/><rect x="155.10" y="178.40" width="5.3" height="5.3" rx="1.2" fill="#e6e9f2"/><rect x="162.00" y="137.00" width="5.3" height="5.3" rx="1.2" fill="#e6e9f2"/><rect x="162.00" y="143.90" width="5.3" height="5.3" rx="1.2" fill="#e6e9f2"/><rect x="162.00" y="150.80" width="5.3" height="5.3" rx="1.2" fill="#e6e9f2"/><rect x="162.00" y="157.70" width="5.3" height="5.3" rx="1.2" fill="#e6e9f2"/><rect x="162.00" y="164.60" width="5.3" height="5.3" rx="1.2" fill="#e6e9f2"/><rect x="162.00" y="171.50" width="5.3" height="5.3" rx="1.2" fill="#e6e9f2"/><rect x="162.00" y="178.40" width="5.3" height="5.3" rx="1.2" fill="#e6e9f2"/><rect x="168.90" y="137.00" width="5.3" height="5.3" rx="1.2" fill="#e6e9f2"/><rect x="168.90" y="143.90" width="5.3" height="5.3" rx="1.2" fill="#e6e9f2"/><rect x="168.90" y="150.80" width="5.3" height="5.3" rx="1.2" fill="#e6e9f2"/><rect x="168.90" y="157.70" width="5.3" height="5.3" rx="1.2" fill="#e6e9f2"/><rect x="168.90" y="164.60" width="5.3" height="5.3" rx="1.2" fill="#e6e9f2"/><rect x="168.90" y="171.50" width="5.3" height="5.3" rx="1.2" fill="#e6e9f2"/><rect x="168.90" y="178.40" width="5.3" height="5.3" rx="1.2" fill="#e6e9f2"/><rect x="175.80" y="137.00" width="5.3" height="5.3" rx="1.2" fill="#e6e9f2"/><rect x="175.80" y="143.90" width="5.3" height="5.3" rx="1.2" fill="#e6e9f2"/><rect x="175.80" y="150.80" width="5.3" height="5.3" rx="1.2" fill="#e6e9f2"/><rect x="175.80" y="157.70" width="5.3" height="5.3" rx="1.2" fill="#e6e9f2"/><rect x="175.80" y="164.60" width="5.3" height="5.3" rx="1.2" fill="#e6e9f2"/><rect x="175.80" y="171.50" width="5.3" height="5.3" rx="1.2" fill="#e6e9f2"/><rect x="175.80" y="178.40" width="5.3" height="5.3" rx="1.2" fill="#e6e9f2"/><rect x="182.70" y="137.00" width="5.3" height="5.3" rx="1.2" fill="#e6e9f2"/><rect x="182.70" y="143.90" width="5.3" height="5.3" rx="1.2" fill="#e6e9f2"/><rect x="182.70" y="150.80" width="5.3" height="5.3" rx="1.2" fill="#e6e9f2"/><rect x="182.70" y="157.70" width="5.3" height="5.3" rx="1.2" fill="#e6e9f2"/><rect x="182.70" y="164.60" width="5.3" height="5.3" rx="1.2" fill="#e6e9f2"/><rect x="182.70" y="171.50" width="5.3" height="5.3" rx="1.2" fill="#e6e9f2"/><rect x="182.70" y="178.40" width="5.3" height="5.3" rx="1.2" fill="#e6e9f2"/><rect x="189.60" y="137.00" width="5.3" height="5.3" rx="1.2" fill="#e6e9f2"/><rect x="189.60" y="143.90" width="5.3" height="5.3" rx="1.2" fill="#e6e9f2"/><rect x="189.60" y="150.80" width="5.3" height="5.3" rx="1.2" fill="#e6e9f2"/><rect x="189.60" y="157.70" width="5.3" height="5.3" rx="1.2" fill="#e6e9f2"/><rect x="189.60" y="164.60" width="5.3" height="5.3" rx="1.2" fill="#e6e9f2"/><rect x="189.60" y="171.50" width="5.3" height="5.3" rx="1.2" fill="#e6e9f2"/><rect x="189.60" y="178.40" width="5.3" height="5.3" rx="1.2" fill="#e6e9f2"/><rect x="196.50" y="137.00" width="5.3" height="5.3" rx="1.2" fill="#e6e9f2"/><rect x="196.50" y="143.90" width="5.3" height="5.3" rx="1.2" fill="#e6e9f2"/><rect x="196.50" y="150.80" width="5.3" height="5.3" rx="1.2" fill="#e6e9f2"/><rect x="196.50" y="157.70" width="5.3" height="5.3" rx="1.2" fill="#e6e9f2"/><rect x="196.50" y="164.60" width="5.3" height="5.3" rx="1.2" fill="#e6e9f2"/><rect x="196.50" y="171.50" width="5.3" height="5.3" rx="1.2" fill="#e6e9f2"/><rect x="196.50" y="178.40" width="5.3" height="5.3" rx="1.2" fill="#e6e9f2"/><rect x="203.40" y="137.00" width="5.3" height="5.3" rx="1.2" fill="#e6e9f2"/><rect x="203.40" y="143.90" width="5.3" height="5.3" rx="1.2" fill="#e6e9f2"/><rect x="203.40" y="150.80" width="5.3" height="5.3" rx="1.2" fill="#e6e9f2"/><rect x="203.40" y="157.70" width="5.3" height="5.3" rx="1.2" fill="#e6e9f2"/><rect x="203.40" y="164.60" width="5.3" height="5.3" rx="1.2" fill="#e6e9f2"/><rect x="203.40" y="171.50" width="5.3" height="5.3" rx="1.2" fill="#e6e9f2"/><rect x="203.40" y="178.40" width="5.3" height="5.3" rx="1.2" fill="#e6e9f2"/><rect x="210.30" y="137.00" width="5.3" height="5.3" rx="1.2" fill="#e6e9f2"/><rect x="210.30" y="143.90" width="5.3" height="5.3" rx="1.2" fill="#e6e9f2"/><rect x="210.30" y="150.80" width="5.3" height="5.3" rx="1.2" fill="#e6e9f2"/><rect x="210.30" y="157.70" width="5.3" height="5.3" rx="1.2" fill="#e6e9f2"/><rect x="210.30" y="164.60" width="5.3" height="5.3" rx="1.2" fill="#e6e9f2"/><rect x="210.30" y="171.50" width="5.3" height="5.3" rx="1.2" fill="#e6e9f2"/><rect x="210.30" y="178.40" width="5.3" height="5.3" rx="1.2" fill="#e6e9f2"/><rect x="217.20" y="137.00" width="5.3" height="5.3" rx="1.2" fill="#e6e9f2"/><rect x="217.20" y="143.90" width="5.3" height="5.3" rx="1.2" fill="#e6e9f2"/><rect x="217.20" y="150.80" width="5.3" height="5.3" rx="1.2" fill="#e6e9f2"/><rect x="217.20" y="157.70" width="5.3" height="5.3" rx="1.2" fill="#e6e9f2"/><rect x="217.20" y="164.60" width="5.3" height="5.3" rx="1.2" fill="#e6e9f2"/><rect x="217.20" y="171.50" width="5.3" height="5.3" rx="1.2" fill="#e6e9f2"/><rect x="217.20" y="178.40" width="5.3" height="5.3" rx="1.2" fill="#e6e9f2"/><rect x="224.10" y="137.00" width="5.3" height="5.3" rx="1.2" fill="#e6e9f2"/><rect x="224.10" y="143.90" width="5.3" height="5.3" rx="1.2" fill="#e6e9f2"/><rect x="224.10" y="150.80" width="5.3" height="5.3" rx="1.2" fill="#e6e9f2"/><rect x="224.10" y="157.70" width="5.3" height="5.3" rx="1.2" fill="#bce7f0"/><rect x="224.10" y="164.60" width="5.3" height="5.3" rx="1.2" fill="#e6e9f2"/><rect x="224.10" y="171.50" width="5.3" height="5.3" rx="1.2" fill="#e6e9f2"/><rect x="224.10" y="178.40" width="5.3" height="5.3" rx="1.2" fill="#e6e9f2"/><rect x="231.00" y="137.00" width="5.3" height="5.3" rx="1.2" fill="#e6e9f2"/><rect x="231.00" y="143.90" width="5.3" height="5.3" rx="1.2" fill="#e6e9f2"/><rect x="231.00" y="150.80" width="5.3" height="5.3" rx="1.2" fill="#e6e9f2"/><rect x="231.00" y="157.70" width="5.3" height="5.3" rx="1.2" fill="#e6e9f2"/><rect x="231.00" y="164.60" width="5.3" height="5.3" rx="1.2" fill="#e6e9f2"/><rect x="231.00" y="171.50" width="5.3" height="5.3" rx="1.2" fill="#e6e9f2"/><rect x="231.00" y="178.40" width="5.3" height="5.3" rx="1.2" fill="#e6e9f2"/><rect x="237.90" y="137.00" width="5.3" height="5.3" rx="1.2" fill="#e6e9f2"/><rect x="237.90" y="143.90" width="5.3" height="5.3" rx="1.2" fill="#e6e9f2"/><rect x="237.90" y="150.80" width="5.3" height="5.3" rx="1.2" fill="#bce7f0"/><rect x="237.90" y="157.70" width="5.3" height="5.3" rx="1.2" fill="#e6e9f2"/><rect x="237.90" y="164.60" width="5.3" height="5.3" rx="1.2" fill="#bce7f0"/><rect x="237.90" y="171.50" width="5.3" height="5.3" rx="1.2" fill="#e6e9f2"/><rect x="237.90" y="178.40" width="5.3" height="5.3" rx="1.2" fill="#e6e9f2"/><rect x="244.80" y="137.00" width="5.3" height="5.3" rx="1.2" fill="#e6e9f2"/><rect x="244.80" y="143.90" width="5.3" height="5.3" rx="1.2" fill="#e6e9f2"/><rect x="244.80" y="150.80" width="5.3" height="5.3" rx="1.2" fill="#e6e9f2"/><rect x="244.80" y="157.70" width="5.3" height="5.3" rx="1.2" fill="#e6e9f2"/><rect x="244.80" y="164.60" width="5.3" height="5.3" rx="1.2" fill="#e6e9f2"/><rect x="244.80" y="171.50" width="5.3" height="5.3" rx="1.2" fill="#e6e9f2"/><rect x="244.80" y="178.40" width="5.3" height="5.3" rx="1.2" fill="#e6e9f2"/><rect x="251.70" y="137.00" width="5.3" height="5.3" rx="1.2" fill="#e6e9f2"/><rect x="251.70" y="143.90" width="5.3" height="5.3" rx="1.2" fill="#e6e9f2"/><rect x="251.70" y="150.80" width="5.3" height="5.3" rx="1.2" fill="#e6e9f2"/><rect x="251.70" y="157.70" width="5.3" height="5.3" rx="1.2" fill="#e6e9f2"/><rect x="251.70" y="164.60" width="5.3" height="5.3" rx="1.2" fill="#e6e9f2"/><rect x="251.70" y="171.50" width="5.3" height="5.3" rx="1.2" fill="#e6e9f2"/><rect x="251.70" y="178.40" width="5.3" height="5.3" rx="1.2" fill="#e6e9f2"/><rect x="258.60" y="137.00" width="5.3" height="5.3" rx="1.2" fill="#bce7f0"/><rect x="258.60" y="143.90" width="5.3" height="5.3" rx="1.2" fill="#e6e9f2"/><rect x="258.60" y="150.80" width="5.3" height="5.3" rx="1.2" fill="#e6e9f2"/><rect x="258.60" y="157.70" width="5.3" height="5.3" rx="1.2" fill="#e6e9f2"/><rect x="258.60" y="164.60" width="5.3" height="5.3" rx="1.2" fill="#bce7f0"/><rect x="258.60" y="171.50" width="5.3" height="5.3" rx="1.2" fill="#bce7f0"/><rect x="258.60" y="178.40" width="5.3" height="5.3" rx="1.2" fill="#e6e9f2"/><rect x="265.50" y="137.00" width="5.3" height="5.3" rx="1.2" fill="#e6e9f2"/><rect x="265.50" y="143.90" width="5.3" height="5.3" rx="1.2" fill="#e6e9f2"/><rect x="265.50" y="150.80" width="5.3" height="5.3" rx="1.2" fill="#e6e9f2"/><rect x="265.50" y="157.70" width="5.3" height="5.3" rx="1.2" fill="#e6e9f2"/><rect x="265.50" y="164.60" width="5.3" height="5.3" rx="1.2" fill="#e6e9f2"/><rect x="265.50" y="171.50" width="5.3" height="5.3" rx="1.2" fill="#e6e9f2"/><rect x="265.50" y="178.40" width="5.3" height="5.3" rx="1.2" fill="#e6e9f2"/><rect x="272.40" y="137.00" width="5.3" height="5.3" rx="1.2" fill="#e6e9f2"/><rect x="272.40" y="143.90" width="5.3" height="5.3" rx="1.2" fill="#e6e9f2"/><rect x="272.40" y="150.80" width="5.3" height="5.3" rx="1.2" fill="#e6e9f2"/><rect x="272.40" y="157.70" width="5.3" height="5.3" rx="1.2" fill="#e6e9f2"/><rect x="272.40" y="164.60" width="5.3" height="5.3" rx="1.2" fill="#e6e9f2"/><rect x="272.40" y="171.50" width="5.3" height="5.3" rx="1.2" fill="#e6e9f2"/><rect x="272.40" y="178.40" width="5.3" height="5.3" rx="1.2" fill="#e6e9f2"/><rect x="279.30" y="137.00" width="5.3" height="5.3" rx="1.2" fill="#e6e9f2"/><rect x="279.30" y="143.90" width="5.3" height="5.3" rx="1.2" fill="#e6e9f2"/><rect x="279.30" y="150.80" width="5.3" height="5.3" rx="1.2" fill="#e6e9f2"/><rect x="279.30" y="157.70" width="5.3" height="5.3" rx="1.2" fill="#e6e9f2"/><rect x="279.30" y="164.60" width="5.3" height="5.3" rx="1.2" fill="#e6e9f2"/><rect x="279.30" y="171.50" width="5.3" height="5.3" rx="1.2" fill="#e6e9f2"/><rect x="279.30" y="178.40" width="5.3" height="5.3" rx="1.2" fill="#e6e9f2"/><rect x="286.20" y="137.00" width="5.3" height="5.3" rx="1.2" fill="#e6e9f2"/><rect x="286.20" y="143.90" width="5.3" height="5.3" rx="1.2" fill="#e6e9f2"/><rect x="286.20" y="150.80" width="5.3" height="5.3" rx="1.2" fill="#e6e9f2"/><rect x="286.20" y="157.70" width="5.3" height="5.3" rx="1.2" fill="#e6e9f2"/><rect x="286.20" y="164.60" width="5.3" height="5.3" rx="1.2" fill="#e6e9f2"/><rect x="286.20" y="171.50" width="5.3" height="5.3" rx="1.2" fill="#e6e9f2"/><rect x="286.20" y="178.40" width="5.3" height="5.3" rx="1.2" fill="#e6e9f2"/><rect x="293.10" y="137.00" width="5.3" height="5.3" rx="1.2" fill="#e6e9f2"/><rect x="293.10" y="143.90" width="5.3" height="5.3" rx="1.2" fill="#e6e9f2"/><rect x="293.10" y="150.80" width="5.3" height="5.3" rx="1.2" fill="#e6e9f2"/><rect x="293.10" y="157.70" width="5.3" height="5.3" rx="1.2" fill="#e6e9f2"/><rect x="293.10" y="164.60" width="5.3" height="5.3" rx="1.2" fill="#e6e9f2"/><rect x="293.10" y="171.50" width="5.3" height="5.3" rx="1.2" fill="#e6e9f2"/><rect x="293.10" y="178.40" width="5.3" height="5.3" rx="1.2" fill="#e6e9f2"/><rect x="300.00" y="137.00" width="5.3" height="5.3" rx="1.2" fill="#e6e9f2"/><rect x="300.00" y="143.90" width="5.3" height="5.3" rx="1.2" fill="#e6e9f2"/><rect x="300.00" y="150.80" width="5.3" height="5.3" rx="1.2" fill="#e6e9f2"/><rect x="300.00" y="157.70" width="5.3" height="5.3" rx="1.2" fill="#e6e9f2"/><rect x="300.00" y="164.60" width="5.3" height="5.3" rx="1.2" fill="#e6e9f2"/><rect x="300.00" y="171.50" width="5.3" height="5.3" rx="1.2" fill="#e6e9f2"/><rect x="300.00" y="178.40" width="5.3" height="5.3" rx="1.2" fill="#e6e9f2"/><rect x="306.90" y="137.00" width="5.3" height="5.3" rx="1.2" fill="#e6e9f2"/><rect x="306.90" y="143.90" width="5.3" height="5.3" rx="1.2" fill="#e6e9f2"/><rect x="306.90" y="150.80" width="5.3" height="5.3" rx="1.2" fill="#e6e9f2"/><rect x="306.90" y="157.70" width="5.3" height="5.3" rx="1.2" fill="#e6e9f2"/><rect x="306.90" y="164.60" width="5.3" height="5.3" rx="1.2" fill="#e6e9f2"/><rect x="306.90" y="171.50" width="5.3" height="5.3" rx="1.2" fill="#e6e9f2"/><rect x="306.90" y="178.40" width="5.3" height="5.3" rx="1.2" fill="#bce7f0"/><rect x="313.80" y="137.00" width="5.3" height="5.3" rx="1.2" fill="#35a8c4"/><rect x="313.80" y="143.90" width="5.3" height="5.3" rx="1.2" fill="#bce7f0"/><rect x="313.80" y="150.80" width="5.3" height="5.3" rx="1.2" fill="#e6e9f2"/><rect x="313.80" y="157.70" width="5.3" height="5.3" rx="1.2" fill="#e6e9f2"/><rect x="313.80" y="164.60" width="5.3" height="5.3" rx="1.2" fill="#e6e9f2"/><rect x="313.80" y="171.50" width="5.3" height="5.3" rx="1.2" fill="#e6e9f2"/><rect x="313.80" y="178.40" width="5.3" height="5.3" rx="1.2" fill="#e6e9f2"/><rect x="320.70" y="137.00" width="5.3" height="5.3" rx="1.2" fill="#e6e9f2"/><rect x="320.70" y="143.90" width="5.3" height="5.3" rx="1.2" fill="#e6e9f2"/><rect x="320.70" y="150.80" width="5.3" height="5.3" rx="1.2" fill="#e6e9f2"/><rect x="320.70" y="157.70" width="5.3" height="5.3" rx="1.2" fill="#e6e9f2"/><rect x="320.70" y="164.60" width="5.3" height="5.3" rx="1.2" fill="#e6e9f2"/><rect x="320.70" y="171.50" width="5.3" height="5.3" rx="1.2" fill="#e6e9f2"/><rect x="320.70" y="178.40" width="5.3" height="5.3" rx="1.2" fill="#e6e9f2"/><rect x="327.60" y="137.00" width="5.3" height="5.3" rx="1.2" fill="#e6e9f2"/><rect x="327.60" y="143.90" width="5.3" height="5.3" rx="1.2" fill="#e6e9f2"/><rect x="327.60" y="150.80" width="5.3" height="5.3" rx="1.2" fill="#e6e9f2"/><rect x="327.60" y="157.70" width="5.3" height="5.3" rx="1.2" fill="#e6e9f2"/><rect x="327.60" y="164.60" width="5.3" height="5.3" rx="1.2" fill="#e6e9f2"/><rect x="327.60" y="171.50" width="5.3" height="5.3" rx="1.2" fill="#e6e9f2"/><rect x="327.60" y="178.40" width="5.3" height="5.3" rx="1.2" fill="#e6e9f2"/><rect x="334.50" y="137.00" width="5.3" height="5.3" rx="1.2" fill="#0e7490"/><rect x="334.50" y="143.90" width="5.3" height="5.3" rx="1.2" fill="#bce7f0"/><rect x="334.50" y="150.80" width="5.3" height="5.3" rx="1.2" fill="#7cd0e2"/><rect x="334.50" y="157.70" width="5.3" height="5.3" rx="1.2" fill="#7cd0e2"/><rect x="334.50" y="164.60" width="5.3" height="5.3" rx="1.2" fill="#e6e9f2"/><rect x="334.50" y="171.50" width="5.3" height="5.3" rx="1.2" fill="#e6e9f2"/><rect x="334.50" y="178.40" width="5.3" height="5.3" rx="1.2" fill="#35a8c4"/><rect x="341.40" y="137.00" width="5.3" height="5.3" rx="1.2" fill="#0e7490"/><rect x="341.40" y="143.90" width="5.3" height="5.3" rx="1.2" fill="#0e7490"/><rect x="341.40" y="150.80" width="5.3" height="5.3" rx="1.2" fill="#0e7490"/><rect x="341.40" y="157.70" width="5.3" height="5.3" rx="1.2" fill="#e6e9f2"/><rect x="341.40" y="164.60" width="5.3" height="5.3" rx="1.2" fill="#e6e9f2"/><rect x="341.40" y="171.50" width="5.3" height="5.3" rx="1.2" fill="#bce7f0"/><rect x="341.40" y="178.40" width="5.3" height="5.3" rx="1.2" fill="#35a8c4"/><rect x="348.30" y="137.00" width="5.3" height="5.3" rx="1.2" fill="#bce7f0"/><rect x="348.30" y="143.90" width="5.3" height="5.3" rx="1.2" fill="#bce7f0"/><rect x="348.30" y="150.80" width="5.3" height="5.3" rx="1.2" fill="#e6e9f2"/><rect x="348.30" y="157.70" width="5.3" height="5.3" rx="1.2" fill="#0e7490"/><rect x="348.30" y="164.60" width="5.3" height="5.3" rx="1.2" fill="#e6e9f2"/><rect x="348.30" y="171.50" width="5.3" height="5.3" rx="1.2" fill="#7cd0e2"/><rect x="348.30" y="178.40" width="5.3" height="5.3" rx="1.2" fill="#e6e9f2"/><rect x="355.20" y="137.00" width="5.3" height="5.3" rx="1.2" fill="#bce7f0"/><rect x="355.20" y="143.90" width="5.3" height="5.3" rx="1.2" fill="#35a8c4"/><rect x="355.20" y="150.80" width="5.3" height="5.3" rx="1.2" fill="#e6e9f2"/><rect x="355.20" y="157.70" width="5.3" height="5.3" rx="1.2" fill="#bce7f0"/><rect x="355.20" y="164.60" width="5.3" height="5.3" rx="1.2" fill="#bce7f0"/><rect x="355.20" y="171.50" width="5.3" height="5.3" rx="1.2" fill="#e6e9f2"/><rect x="355.20" y="178.40" width="5.3" height="5.3" rx="1.2" fill="#e6e9f2"/><rect x="362.10" y="137.00" width="5.3" height="5.3" rx="1.2" fill="#e6e9f2"/><rect x="362.10" y="143.90" width="5.3" height="5.3" rx="1.2" fill="#e6e9f2"/><rect x="362.10" y="150.80" width="5.3" height="5.3" rx="1.2" fill="#e6e9f2"/><rect x="362.10" y="157.70" width="5.3" height="5.3" rx="1.2" fill="#bce7f0"/><rect x="362.10" y="164.60" width="5.3" height="5.3" rx="1.2" fill="#e6e9f2"/><rect x="362.10" y="171.50" width="5.3" height="5.3" rx="1.2" fill="#e6e9f2"/><rect x="362.10" y="178.40" width="5.3" height="5.3" rx="1.2" fill="#e6e9f2"/><rect x="369.00" y="137.00" width="5.3" height="5.3" rx="1.2" fill="#e6e9f2"/><rect x="369.00" y="143.90" width="5.3" height="5.3" rx="1.2" fill="#e6e9f2"/><rect x="369.00" y="150.80" width="5.3" height="5.3" rx="1.2" fill="#e6e9f2"/><rect x="369.00" y="157.70" width="5.3" height="5.3" rx="1.2" fill="#e6e9f2"/><rect x="369.00" y="164.60" width="5.3" height="5.3" rx="1.2" fill="#e6e9f2"/><rect x="369.00" y="171.50" width="5.3" height="5.3" rx="1.2" fill="#e6e9f2"/><rect x="369.00" y="178.40" width="5.3" height="5.3" rx="1.2" fill="#e6e9f2"/><rect x="375.90" y="137.00" width="5.3" height="5.3" rx="1.2" fill="#e6e9f2"/><rect x="375.90" y="143.90" width="5.3" height="5.3" rx="1.2" fill="#e6e9f2"/><rect x="375.90" y="150.80" width="5.3" height="5.3" rx="1.2" fill="#e6e9f2"/><rect x="375.90" y="157.70" width="5.3" height="5.3" rx="1.2" fill="#e6e9f2"/><rect x="375.90" y="164.60" width="5.3" height="5.3" rx="1.2" fill="#e6e9f2"/></g>
</svg>
